<svg xmlns="http://www.w3.org/2000/svg" viewBox="0 0 1081 1081">
    <g data-name="Layer 2">
        <g data-name="feeding mode">
            <path d="M895.41 273.67c24 26.59 66.78 81.73 83 162.79a344.66 344.66 0 0 1 2.09 119.23c-4.07 26.08-14.64 89.13-60.25 148.83-53.6 70.14-148.29 125.61-251.58 118.86-73.75-4.83-126-39.43-145.6-52.79-106.11-72.12-72.26-143.15-172.57-211.52 0 0-100.17-68.27-244.21-44a22.82 22.82 0 0 0-7 2.51 23.91 23.91 0 0 0-7.17 7.2c-2.82 4.5-70.53 152.14 18.52 318C119.32 859 161.54 935.2 252 997c119.85 81.94 243.08 83.5 288.5 83.46 37 0 172.55-4 304.22-93.8a548.59 548.59 0 0 0 141-140.49c12.62-18.33 34-49.3 50.3-90.67 49.22-124.54 31-286.61-57.87-402.3a388.77 388.77 0 0 0-82.74-79.53Z" style="fill:#49c7ed"/>
            <path d="M1016.46 365c-20-72.76-53.45-120.38-75.1-146.45C850 108.48 685.19 40.4 547.74 87.58a287 287 0 0 0-81.16 43.79 452.42 452.42 0 0 1 133.68-19.53c44.11.25 104.24 7.14 105.12 19.56.66 9.24-32 14.55-68.42 30.95-53.87 24.24-93.78 62.73-123.64 102.86C541.43 255 817.85 158.88 967.89 301.4a257.17 257.17 0 0 1 48.57 63.6Z" style="fill:#8b90c7"/>
            <circle cx="329.33" cy="616.98" r="23.48" style="fill:#dcf2fa"/>
            <path d="M97.58 360.09c-3.93.54-4.76-.16-5.87.78-1.79 1.52-1.35 4.77-1 7.43s.71 5.16 2.84 6.75c1.34 1 2.75 1.13 4.5 1.28 2.25.19 5.66.48 7.53-1.57 1.48-1.62 1.2-3.86.68-8-.46-3.73-.82-6.62-2.74-7.53-1.27-.64-1.91.3-5.94.86Zm72.74-114.73c-4.66.48-7.42 5.74-8.85 8.47s-3.7 7-2 11c1.28 2.95 4.13 4.28 7.32 5.78 3 1.41 5.5 2.57 8.4 1.89 3.35-.79 5.18-3.56 7.48-7.06s4.07-6.17 3.38-9.12c-.56-2.45-2.6-3.87-6.68-6.69-4.37-3.04-6.49-4.54-9.05-4.27Zm-61.64 188.57c.44 1.85 2.75 3.51 7.36 6.75 5.41 3.81 8.17 5.7 10.58 5.11 1.13-.28 1.56-.8 5.73-5.62 5.86-6.74 6.16-7 6.33-8 .59-3.54-2-6.58-6.67-12.08-3.49-4.11-5.24-6.16-7.56-6.26-3.09-.14-5.36 2.79-9.91 8.64-4.39 5.61-6.54 8.53-5.86 11.46ZM330 327.73c-2.47-1.45-5.57-.41-7.6.28s-5.41 1.82-6.57 4.71c-1.39 3.46 1.18 7.19 2.93 9.75 1.62 2.34 3.69 5.36 6.79 5.51 1.49.08 3.14-1 6.45-3.19s4.85-3.21 5.06-4.64-.79-1.95-2.94-5.51c-2.86-4.7-2.37-5.88-4.12-6.91ZM134.8 205.18c-3.1 1.24-3.8.87-4.6 1.77-1.4 1.57-.69 4.27-.54 4.83.78 2.95 3.54 5.72 6.31 5.68.62 0 1.87-.51 4.36-1.52 2.71-1.09 2.95-1.38 3.08-1.57 1.28-1.82-.4-5.31-2-7.28-1.12-1.38-1.92-2.88-3.4-3.05-.86-.1-1.12.3-3.21 1.14ZM328.42 82.79c-1.78 4.34 1.56 9.26 3.29 11.8 1.83 2.7 4.47 6.59 8.71 7 3.2.27 5.72-1.61 8.55-3.72 2.67-2 4.87-3.63 5.63-6.51.89-3.33-.69-6.25-2.68-9.93s-3.52-6.49-6.45-7.29c-2.43-.66-4.64.47-9.05 2.73-4.69 2.35-7.03 3.55-8 5.92Zm-87.91 69.65c-3.09 1.24-3.8.87-4.6 1.77-1.4 1.57-.68 4.27-.53 4.83.78 3 3.53 5.72 6.31 5.68.62 0 1.86-.51 4.35-1.52 2.71-1.09 3-1.38 3.08-1.56 1.28-1.83-.39-5.32-2-7.29-1.13-1.38-1.92-2.88-3.4-3-.86-.15-1.11.25-3.21 1.09Zm150.26 144c-3.09 1.24-3.8.87-4.6 1.77-1.4 1.57-.68 4.27-.53 4.83.78 2.95 3.53 5.72 6.31 5.68.62 0 1.86-.51 4.35-1.52 2.71-1.09 3-1.38 3.08-1.56 1.28-1.83-.39-5.32-2-7.29-1.13-1.38-1.92-2.88-3.4-3.05-.86-.1-1.11.3-3.21 1.14Zm-144.21 11.02c-3.46-4.27-3.22-5.75-5.14-6.4-3.08-1-6.61 1.83-9.5 4.18s-5.61 4.53-6 8.2c-.22 2.3.64 4.06 1.72 6.24 1.39 2.8 3.49 7.06 7.26 7.8 3 .59 5.43-1.34 10-4.94 4.09-3.22 7.25-5.72 7-8.64-.22-1.99-1.79-2.06-5.34-6.44Z" style="fill:#e1f1e2"/>
            <circle cx="540.5" cy="540.5" r="540" style="fill:none;stroke:#231f20;stroke-miterlimit:10"/>
        </g>
    </g>
</svg>
