<svg xmlns="http://www.w3.org/2000/svg" viewBox="0 0 1080 1080" xmlns:v="https://vecta.io/nano"><path d="M894.91 267.17c-1.85 1.81 20.27 20.87 42.67 57.95A330.2 330.2 0 0 1 977.87 430 344.23 344.23 0 0 1 980 549.19c-4.39 28.13-14.49 89-60.25 148.83-8.31 10.85-32.93 42.48-71.81 67.05-98.5 62.26-260.56 55.09-348.47-26.5-75.08-69.7-43.7-145.13-131.08-198.57-49.3-30.15-106-34.68-135-37a386 386 0 0 0-141.82 15.29c-11.7 35.83-53.09 176.9 18.52 318 43.79 86.27 109.44 132.43 141.41 154.28C371.35 1072.48 494.58 1074 540 1074c37 0 172.55-4 304.22-93.8a548.59 548.59 0 0 0 141-140.49c12.62-18.33 34-49.3 50.3-90.67 7.22-18.26 38.26-101.56 21.94-210.78a427.57 427.57 0 0 0-32.87-112.07 413 413 0 0 0-46.94-79.45c-37.2-48.95-80.22-82.02-82.74-79.57z" fill="#49c7ed" stroke-width="12" stroke="#49c7ed" stroke-miterlimit="10"/><path d="M1008.13,334.74c7.41-5.5-28.86-99.72-114.26-180-9-8.5-203.74-186.39-399.63-118.66a291.2,291.2,0,0,0-81.16,43.79A452.42,452.42,0,0,1,546.76,60.34c44.11.25,104.24,7.14,105.12,19.56.66,9.24-32,14.55-68.42,30.95-53.87,24.24-93.78,62.73-123.64,102.86a674.34,674.34,0,0,1,102-27c34.37-6.25,86-15.27,152.84-9.48,26.25,2.27,76.81,7.38,131.22,30.89C953,254.4,1000.71,340.24,1008.13,334.74Z" fill="#4e61ac"/><circle cx="328.83" cy="616.48" r="23.48" fill="#e1f1e2"/><path d="M97.6 380.42c-4.22.58-5.1-.17-6.3.84-1.92 1.63-1.44 5.12-1 8s.76 5.53 3 7.24c1.44 1.08 3 1.2 4.82 1.36 2.42.21 6.08.52 8.08-1.67 1.59-1.75 1.29-4.14.74-8.61-.5-4-.88-7.1-2.94-8.08-1.39-.69-2.07.33-6.4.92zm78.04-123.08c-5 .51-8 6.16-9.49 9.09-1.63 3.09-4 7.56-2.16 11.76 1.37 3.16 4.42 4.59 7.85 6.2 3.24 1.51 5.9 2.76 9 2 3.6-.84 5.56-3.82 8-7.56s4.36-6.62 3.63-9.8c-.61-2.62-2.8-4.14-7.17-7.17-4.6-3.2-6.92-4.8-9.66-4.52zm-66.13 202.3c.47 2 2.95 3.77 7.89 7.24 5.81 4.09 8.77 6.12 11.36 5.48 1.21-.29 1.67-.86 6.15-6 6.28-7.24 6.6-7.55 6.78-8.63.64-3.79-2.14-7.06-7.15-13-3.75-4.41-5.62-6.61-8.11-6.72-3.32-.14-5.76 3-10.63 9.28-4.71 6.08-7.05 9.17-6.29 12.35zm237.41-113.93c-2.64-1.55-6-.43-8.15.3s-5.8 1.95-7 5.05c-1.49 3.72 1.27 7.72 3.15 10.46 1.73 2.52 4 5.75 7.28 5.92 1.6.08 3.37-1.09 6.92-3.42s5.2-3.45 5.43-5-.85-2.09-3.16-5.9c-3.1-5.03-2.57-6.3-4.47-7.41zM137.53 214.24c-3.32 1.33-4.07.94-4.94 1.9-1.5 1.68-.73 4.58-.57 5.18.84 3.16 3.79 6.13 6.77 6.09.67 0 2-.55 4.67-1.63 2.91-1.17 3.17-1.48 3.31-1.68 1.37-1.95-.42-5.7-2.15-7.82-1.21-1.47-2.06-3.08-3.65-3.27-.92-.1-1.19.33-3.44 1.23zm207.72-131.3c-1.91 4.65 1.67 9.93 3.53 12.66 2 2.89 4.79 7.07 9.35 7.45 3.43.29 6.13-1.73 9.17-4 2.86-2.14 5.22-3.9 6-7 1-3.57-.75-6.71-2.88-10.65s-3.78-7-6.92-7.83c-2.6-.7-5 .51-9.71 2.93-4.99 2.61-7.5 3.89-8.54 6.44zm-94.31 74.72c-3.32 1.33-4.07.94-4.93 1.9-1.51 1.68-.74 4.58-.58 5.18.84 3.16 3.8 6.13 6.77 6.09.67 0 2-.55 4.67-1.63 2.91-1.17 3.17-1.48 3.31-1.68 1.37-2-.42-5.7-2.15-7.82-1.21-1.47-2.06-3.08-3.65-3.27-.92-.1-1.19.33-3.44 1.23zm161.2 154.48c-3.32 1.34-4.07.94-4.93 1.9-1.5 1.68-.74 4.58-.58 5.19.84 3.15 3.8 6.12 6.77 6.08.67 0 2-.55 4.67-1.62 2.91-1.18 3.17-1.49 3.31-1.68 1.37-2-.42-5.71-2.15-7.82-1.21-1.47-2.06-3.09-3.65-3.27-.92-.11-1.19.32-3.44 1.22zM257.43 324c-3.71-4.58-3.46-6.17-5.51-6.86-3.31-1.11-7.1 2-10.2 4.48s-6 4.87-6.4 8.8c-.24 2.47.69 4.36 1.85 6.69 1.48 3 3.74 7.58 7.78 8.37 3.2.64 5.83-1.44 10.72-5.3 4.39-3.46 7.78-6.13 7.47-9.27-.21-2.17-1.9-2.24-5.71-6.91z" fill="#92ce9c"/><circle cx="540" cy="540" r="540" stroke="#49c7ed" fill="none" stroke-width="6"/></svg>