<svg xmlns="http://www.w3.org/2000/svg" viewBox="0 0 1081 1081">
    <defs>
        <style>
            .cls-3{fill:#92ce9c}.cls-4{fill:#76d1f0}
        </style>
    </defs>
    <g id="Layer_2" data-name="Layer 2">
        <g id="viewing_mode" data-name="viewing mode">
            <circle cx="540.5" cy="540.5" r="540" style="fill:none;stroke:#231f20;stroke-miterlimit:10"/>
            <path d="M311 940.37a329.12 329.12 0 0 0-11.1-49.48c-30.9-100.8-90.47-119.75-103.56-199.57-2.3-14.06 1.39-2.21 3.38-92.05 2.27-103.1-2.35-129.33-18.39-136.86-10.57-5-25.76-1.64-34.44 6.66-20.25 19.36 5.19 56.17 2.35 123.65-.34 8-3.63 76.85-23.48 80.61-18.4 3.48-54.24-48.33-60.26-104.09C61 527.93 72.6 468.77 91 421.39c6.72-17.35 17.38-41 6.63-56.41C91 355.54 77 349.91 65.5 351.67c-43 6.59-63.28 118.69-65 188.83-1 42.66-1.64 92.47 27.43 142.22 19.34 33.08 47.32 58.47 57.92 68.08 27.22 24.7 33.45 20.85 57.13 42.27 9.3 8.4 72.62 65.67 56.35 104.86-2.45 5.9-9.91 19.11-37.22 27.82q7.92 7.79 16.78 15.8 10.25 9.26 20.13 17.28a157.66 157.66 0 0 0 32.27 11.22c8.6 2 16.35 3.75 26.73 3.48 9.67-.26 25.9-.69 39.13-12.2A48.72 48.72 0 0 0 311 940.37Z" style="fill:#8b90c7"/>
            <g id="weed">
                <path class="cls-3" d="M382 1039c-11.79-17.92-27.17-47.21-27.08-83.56.11-46.17 25.07-60.09 24-102.75-1.14-46.31-31.12-52.35-44.86-104.1-20.17-76 21.53-149.08 26.2-148.06 4.34.95-27.34 65.1-2 134.13C379.49 792.47 418.49 793.38 425 843c6 45.8-24.62 64.88-14.79 109.79 6.88 31.44 28.82 53.69 46.87 67.84A347.2 347.2 0 0 1 382 1039Zm-85.19-20.27a244 244 0 0 0-5.77-57c-11.41-51.16-32.72-62.36-37.2-100-6.31-53 21.68-98.14 24.76-97.32 2.69.72-16 36.07-7.21 81.13 8.44 43.2 34 53 54.74 101.19 8.63 20 18 50.29 18.11 92.06-2.17-.69-5.48-1.83-9.39-3.52-7.65-3.3-11.94-6.26-16.18-8.61a77 77 0 0 0-21.86-7.93Z"/>
                <path class="cls-3" d="M466.67 1016.87c-10.83-13-23.69-33-22.07-56.39 1.63-23.65 16.51-28.72 18.11-53 1.91-29-18.41-34.73-21.77-67.61-3.18-31.2 14.07-36.29 15.44-68.95 2.15-51.31-38.42-86.46-34.22-89.62 3.91-2.93 43.19 24.4 55.77 69.86 10.4 37.63-9.34 44.84 1.51 81.4 12.4 41.77 45.82 58.15 38 86.48-2.91 10.53-9.39 15-8.54 26.42 1.13 15.23 14.16 26.64 24.45 33.67a301.22 301.22 0 0 1-66.69 37.72Z"/>
            </g>
            <path class="cls-4" d="M861.64 974.66C837 986.12 662.18 1064 510 975.41c-21.48-12.5-63.79-36.79-94.63-85.89-33.6-53.49-8.3-64.13-46.24-167.67-5.51-15.05-14-36.67-3.91-52.44 10.69-16.62 36.88-18.54 50.87-19.56 28-2.06 43 5.32 59.48 7.82 61.09 9.27 141.62-48.64 140.87-98.6-.28-18.2-11.4-39.57-25.83-42.27-24.71-4.62-34.83 50.07-82.17 63.4-24.16 6.8-28.9-5.37-82.18-6.27-51.44-.86-60.32 10.25-70.43 2.35-31.94-25 62.38-131.45 46.95-263.74-10.83-92.88-74.21-185.21-117-181.36-12.21 1.1-25 10.23-29.33 21.71-9.24 24.62 26.22 45.07 53.21 98.61C328 287.83 350.47 355.39 323 383c-9.94 10-28.07 16.39-42.26 10.95-34.38-13.17-20.68-86.34-51.67-96.06-14.63-4.58-33 6.91-40.68 19.37-13.75 22.34 2.76 54.65 17.22 83C210.45 409.71 218 421.15 233 444c28.69 43.7 34.27 47.87 36 61.83 2.47 20-4.59 46.76-23.48 58.69-22.61 14.29-54.37 2.4-71.22-3.91-28.78-10.77-36.23-24.22-50.87-20.13-14.87 4.16-26.58 23.46-24.26 39.7 2.48 17.28 20.25 26.72 38.35 36 44.93 23 69 9.78 105.17 34.79a134 134 0 0 1 27.2 25.52c13 15.45 23.39 33.91 33.54 66.47 8.35 26.78 24.65 81.13 15.66 152.61-4.46 35.39-7 53.34-21.92 65.74-33.29 27.64-92.78.06-98.13-2.5 34.94 28.24 162.74 124.53 350.13 121.58 161.13-2.52 273.33-76.98 312.47-105.73Z"/>
            <g id="weed-2" data-name="weed">
                <path class="cls-3" d="M672.8 1017.23c9.29-19.33 20.61-50.42 15.66-86.43-6.3-45.74-32.9-56.19-37.57-98.6-5.07-46.05 23.83-56.05 30.52-109.18 9.82-78-41.29-144.85-45.78-143.22-4.17 1.52 35.81 60.86 20 132.66-13.27 60.09-51.8 66.2-51.66 116.21.14 46.2 33.08 61 29.35 106.83-2.61 32.07-21.37 57.06-37.36 73.5a346.24 346.24 0 0 0 76.88 8.23Zm86.51-9.23a223.87 223.87 0 0 1-6.68-79.5c5-49.77 24.12-63.3 23.48-104.09-.84-53.37-34.63-94.36-37.57-93.13-2.57 1.07 20.69 33.61 18 79.43-2.6 44.34-27 57.9-40.69 107.61-6 21.75-11 54-3.85 97 8.23-.82 16.85-1.91 25.84-3.33 7.47-1.27 14.64-2.6 21.47-3.99Z"/>
                <path class="cls-3" d="M586 1006.59c9-14.33 19.07-35.84 14.33-58.83-4.78-23.22-20.21-26.25-25-50.09-5.77-28.44 13.6-36.87 12.52-69.91-1-31.34-18.79-34.08-24.52-66.26-9-50.56 26.49-90.83 21.91-93.39-4.26-2.39-39.54 30-45.91 76.69-5.28 38.69 15.25 43.19 9.39 80.87-6.69 43.06-37.62 63.76-26.09 90.79 4.29 10 11.32 13.63 12 25 .92 15.24-10.47 28.29-19.72 36.64a300.48 300.48 0 0 0 71.09 28.49Z"/>
            </g>
            <path d="M407.75 16.94a1189.25 1189.25 0 0 1 536.09 164.51c-33.13-37-120.65-124.75-265-163.06-121.18-32.15-222.67-13.63-271.09-1.45Z" style="fill:#6d77b9"/>
            <path class="cls-4" d="M350.44 34.9a1685.78 1685.78 0 0 1 634.19 198.36 542.783 542.783 0 0 0-25.87-34.33q-7.49-9.17-14.92-17.48A1189.23 1189.23 0 0 0 407.75 16.94Q399 19.15 390 21.76c-14 4.06-27.24 8.5-39.56 13.14Z"/>
            <path d="M298.45 57.66A2401.57 2401.57 0 0 1 654 140.11a2402.62 2402.62 0 0 1 363.87 147.78c-4.48-8.45-9.42-17.21-14.85-26.2a539.777 539.777 0 0 0-18.41-28.43A1685.58 1685.58 0 0 0 350.44 34.9q-9.74 3.66-19.91 7.94a534.532 534.532 0 0 0-32.08 14.82Z" style="fill:#9bdbf3"/>
            <path d="m1017.89 287.89-76.63 614.53c-31.68 34.58-140.19 144.33-319.1 171.8C389.74 1109.91 223 978.43 199 958.83 179 942.45.7 791.81.5 540.5c0-30.25 2.54-206.2 134.81-357 58.11-66.2 121.12-104.61 163.14-125.84a2404 2404 0 0 1 409.78 100.16 2403.75 2403.75 0 0 1 309.66 130.07Z" style="fill:#49c7ed;opacity:.2"/>
        </g>
    </g>
</svg>
