<svg xmlns="http://www.w3.org/2000/svg" viewBox="0 0 1079.68 1016">
    <defs>
        <linearGradient id="a" x1="310.89" y1="180.62" x2="895.45" y2="887.62" gradientUnits="userSpaceOnUse">
            <stop offset="0" stop-color="#c9e9eb"/>
            <stop offset=".09" stop-color="#b6e4eb"/>
            <stop offset=".28" stop-color="#84d7ec"/>
            <stop offset=".48" stop-color="#49c7ed"/>
            <stop offset=".67" stop-color="#49c5ec"/>
            <stop offset=".76" stop-color="#49bde7"/>
            <stop offset=".83" stop-color="#49b1df"/>
            <stop offset=".89" stop-color="#499ed3"/>
            <stop offset=".94" stop-color="#4887c4"/>
            <stop offset=".98" stop-color="#486ab2"/>
            <stop offset="1" stop-color="#485daa"/>
        </linearGradient>
    </defs>
    <g data-name="Layer 2">
        <path d="M783.06 806.53a245.61 245.61 0 0 1-26.2 35.35c-9.76 11-95.41 104.12-209.93 89-89.24-11.8-166-85.4-190.17-184.31-11.92 20.24-24.06 49.37-20 82.18 10.54 84.37 120.9 132.48 195 143.15 88.18 12.71 210.72-15.24 244-97.37 10.16-24.84 9.91-49.29 7.3-68Z" style="fill:#7ac4ed"/>
        <path d="M783.06 806.53a281 281 0 0 1-26.2 35.35C742.25 858.67 658.75 950.53 534 944.56c-71-3.39-122.74-36.93-147.13-55.56 14.17 17.76 41.84 47.25 86.09 66.52a220.65 220.65 0 0 0 58.82 16.37c37.2-6.64 106.21-24.42 172.62-78a374.62 374.62 0 0 0 78.66-87.36Z" style="fill:#7dcef1"/>
        <path d="M161.5 195.61c-4.6-19-32.32-35.87-54.26-29.74-17.12 4.77-24.94 21.94-32.66 38.89-13.26 29.1-9.47 44.94-15.87 76.41-6 29.71-11.1 23.89-31.82 80.35C11 404.75 2.59 428.3.5 461.69c-1.36 21.63.32 41.39 1.86 59.48a556.41 556.41 0 0 0 8.21 59.14 536.18 536.18 0 0 0 64.32 169.36 548.65 548.65 0 0 0 128.85 148.48 540.8 540.8 0 0 0 513.53 88.24c-53.52 7.53-146.12 11.87-244.29-30.87C369.43 910.45 298.87 830.08 300.41 797a191.2 191.2 0 0 0-9-71.35c-15.86-50.08-5.8-151.72-4-170.31 5.49-55.5 11.66-66.46 4.48-84.3-1.94-4.81-8.92-20.24-2.7-34.1a30.78 30.78 0 0 1 9-11.29c20.88-17.37 51-98.62 26.15-169-7.65-21.67-15.13-27.1-17.28-48.56-2.74-27.38 6.34-49.55 12.52-64.18 5-11.76 17.37-42.2 45.92-70.43 16.5-16.28 27.66-21.3 28.82-34.79s-8.44-29-21.52-34c-5-1.94-17.79-4.87-47 14.61-45.56 30.43-69.13 82.07-75.13 96-14.57 33.87-29.51 68.59-19.82 108 6.49 26.39 17.3 27.55 24.52 61.56 9.59 45.2-3.36 72.07-6.26 77.74-3.2 6.26-14.93 29.21-30.26 28.7-10-.33-16.87-10.41-24.52-21.91-20.89-31.4-16-53-37.57-75.66a81.53 81.53 0 0 0-12.93-11c-5.14 21.11-10.51 38-14.72 50.11-4.88 14.05-10.49 28.21-14.36 38-3.27 8.26-6.08 15.11-8.08 19.94a61.24 61.24 0 0 1 9.92 8.34c17.65 18.41 12.79 36.86 30.26 53.22a85.14 85.14 0 0 0 13 9.74c12.23 7.43 20 7.57 30.66 19.44 17.93 20.06 14.29 93.71 13.7 103.34-3.32 54.59-8.44 42.22-7.17 65.48.5 9.35 1.93 22.35-6.17 32.76-4.46 5.74-12.28 11.72-20.83 11.85-13.62.22-24.27-14-33.19-28.24-39.39-62.83-48.68-131.4-51.11-152.52-3.65-31.68-2.17-46.08-1.53-51.41.67-5.56 2.69-20.07 22.43-72 11.6-30.51 13.68-32.95 22.44-57.92 11-31.36 13.58-44 14.72-50.11 4.09-22.13 1.35-24.5 5.83-43.75 6.7-28.52 14.67-31.84 11.87-43.39Z" style="fill:#7dcdc2"/>
        <path d="M717.27 986.39c-101.27 13.53-174.15-8.84-211.43-23.83-29-11.65-116.15-46.71-119.73-99.78-1.2-17.73 8.37-19.32 8.21-47-.19-35-15.17-48.72-19.95-90.39a209 209 0 0 1 0-45.78c6.5-71.28 44.29-78.16 63.39-153.78 10.31-40.82 6.61-67.77 31.69-90.39 11.7-10.56 19-10.55 31.7-17.61 55.21-30.69 78.29-120.33 78.26-183.13 0-39.77-9.29-65.79 7.43-97.44a453.15 453.15 0 0 1 24.66-41.04c17.07-24.74 24.92-29.71 24.65-41.09C635.72 37 615 16.77 596.24 17.56c-8.87.38-18.14 5.48-44.61 48.13-32.32 52.07-48.48 78.11-50.48 109.18-2.27 35.26 11.77 37.66 10.56 73.95-1.78 53.56-34.22 104.3-49.71 101.18-23-4.58 12.53-123.78-50.61-178.43-12.56-10.87-31.25-21.12-44.87-47-11.9-22.57-6.22-31.07-16.68-57.83C348 62.12 322-2.77 288.26.09c-17.4 1.48-34.78 20.84-35.46 39-.67 18 15.45 22.72 32.22 52.42 16.09 28.48 8.89 37.61 22 65 16.42 34.17 31.51 28 55.31 62.08 40 57.29 31.42 123.47 30.26 131.48-1.9 13.15-3 9.71-8.14 34.77-10.47 51.45-7.72 76-11.17 98.27C364.74 538.64 314 604.28 268.71 601c-38.95-2.83-75.48-56.78-84.52-102.13-6.45-32.37 2.48-53.49-14.08-70.44-15.68-16-48.09-22.1-63.4-9.39-31.94 26.54 7.57 137.43 49.29 211.31 56.1 99.3 113.6 127.1 105.65 181.95-5.36 37-37.15 63.48-64.47 80.55a540.87 540.87 0 0 0 520.07 93.54Z" style="fill:#8a9ed1"/>
        <path d="M985.14 169.5c-11-16.29-23.39-34.52-43.91-55.46-57.47-58.63-121.81-80.62-145-88.26C654.75-20.76 512 27.7 440.73 82.92c-12.21 9.46-24.52 20.83-25.28 21.51C393.74 124.25 344.73 170 316 246.29c-25.93 68.76-44.45 186.33 7.92 222.06 4.56 3.11 20.18 12.78 65.74 7.65 126.86-14.28 155.21-106.07 261.78-112.13 14.6-.83 68.71-2.22 116.22 31.69 60.14 42.94 72.3 115.76 77.48 146.74C865.45 664.15 810 810.53 700.71 896.82 576.05 995.3 394 1005.6 238.34 923.61a541.37 541.37 0 0 0 224.47 86.77c131.17 18.93 235.4-15.74 285.61-36.71 46.9-19.58 142.61-67.28 221.48-170.2 64-83.57 87.46-165 95.9-200.12 27.29-109.17 5.9-224.91 5.9-224.91-3.4-18.38-21.85-112.88-86.56-208.94Z" style="fill:url(#a)"/>
        <circle cx="467.11" cy="312.78" r="15.85" style="fill:#e1f1e2"/>
    </g>
</svg>
