<svg xmlns="http://www.w3.org/2000/svg" viewBox="0 0 1080 1080" xmlns:v="https://vecta.io/nano"><g stroke="#49c7ed"><circle cx="540" cy="540" r="540" fill="none" stroke-width="6"/><path d="M274.39 77.52C318.47 52.35 413.05 6.44 540 6.57c36.7 0 124.88 4 224.3 50.08a529.07 529.07 0 0 1 284.87 326.09A540.38 540.38 0 0 1 1072.65 540c.14 75.53-15.47 132.82-22.43 155.78-37.82 124.7-114.29 205.3-158.09 244.22-66.61 59.07-131.43 87.19-159.13 98a525.17 525.17 0 0 1-193 36.14c-20.18-.08-79.19-1.47-151.87-23.09a548.4 548.4 0 0 1-120-51.66c-29.63-17.38-119-71.23-183.13-180C54.57 767.85-4.8 667.2 18.74 540c4.82-26.06 31.76-171.69 158.86-225.63 90.77-38.53 175.33-5.94 186-1.65 9.35 3.75 108.78 45.51 142.81 154.73 0 0 23.82 76.45-2.17 151.73a258.67 258.67 0 0 1-36.43 68.45 231.46 231.46 0 0 1-5.35 6.82c-20 24.55-54.38 52.61-89.78 68.95-67.91 31.35-135.11 17.46-135.12 19.25s60.55 14.72 129.39-7c45.19-14.28 77.92-38.49 98.45-56.81a75.31 75.31 0 0 0 12.65 27.58C507.43 785.78 570 782.94 592 781.6c109.72-6.68 220.5-116.93 261.52-241.6 47.74-145.1-12.43-270.15-22.75-290.77C744.58 77.12 563.84 41.19 540 36.88 411.13 13.59 309.14 59.82 274.39 77.52z" stroke-miterlimit="10" fill="#49c7ed" stroke-width="10"/></g><path d="M164.37 429.88c2 1.3-53.24 55.39-61.1 138.89-8 85.63 38.6 150.67 36.32 151.63s-55.84-66.76-48-151.81c7.66-83.73 70.68-140.05 72.78-138.71zm730.22-204.43A412.87 412.87 0 0 1 945.26 540a294.88 294.88 0 0 0-50.67-314.55zm56.08 542.91c-14.45 28.25-73.4 135.3-205.22 188-112.57 45-212.08 23.89-246 15.09 19.92 8 145 55.65 278.54-9.44 122.1-59.5 164.54-170.87 172.68-193.65z" fill="#dcf2fa"/><path d="M283.78 90.57c204-84.29 398.36 11.46 433 29.26-32.93-26.24-91.88-65.38-174.41-82.51C527.73 34.28 392.08 8 271.78 73.87c-37 20.26-70.21 48-78.26 54.78a522.4 522.4 0 0 0-74.61 77.74C152.59 170 206.48 122.5 283.78 90.57z" fill="#4e61ac"/><path d="M616.28 158c-.28 3.17-88.94-21.91-193.28 12-107.2 34.8-165.38 110.56-167.59 108s56-87.19 159.83-121.67 201.3-1.66 201.04 1.67zM723 418.1c-11.42-16.94-42.81-58.57-100.8-81.88-72.36-29.09-136.63-9.75-154.07-3.87 8.88-4.87 81.92-43.34 161.56-8.57 62.19 27.16 87.56 81.14 93.31 94.32zM571 640.35c3.9-1.12 54.59-16.66 70.92-68.8a104.47 104.47 0 0 0-23.5-102.16A94.54 94.54 0 0 1 655.78 570c-10.04 39-44.26 67.42-84.78 70.35z" fill="#49c7ed"/></svg>