<svg xmlns="http://www.w3.org/2000/svg" viewBox="0 0 1081 1081">
    <defs>
        <style>
            .cls-3{fill:#dcf2fa}
        </style>
    </defs>
    <g id="Layer_2" data-name="Layer 2">
        <g id="wave_mode" data-name="wave mode">
            <circle cx="540.5" cy="540.5" r="540" style="fill:none;stroke:#231f20;stroke-miterlimit:10"/>
            <path d="M267.26 74.64C312.42 48.54 409.92.43 540.5.5c222.61.1 364.21 140.11 385.87 162.24 23 23.51 154.65 162.38 154.13 377.76-.5 209.72-125.78 388.88-279.5 473.1-119.46 65.46-247.41 66.89-260.53 66.9a537.68 537.68 0 0 1-280.07-78.21s-36.43-22.13-68.07-49C165.3 930.34-28.35 756.83 14.54 540.5c7.53-37.95 41.61-174.43 163.56-225.63 91-38.19 175.69-5.79 186-1.65C373.5 317 472.93 358.73 507 468c0 0 23.82 76.45-2.17 151.73a258.67 258.67 0 0 1-36.43 68.45c-2.2 2.92-4.09 5.27-5.35 6.82a247.45 247.45 0 0 1-89.78 68.95c-58.93 26.42-112.27 22.33-135.16 19.2A261.74 261.74 0 0 0 466 719.3a75.31 75.31 0 0 0 12.65 27.58c29.33 39.4 91.9 36.56 113.86 35.22C702.22 775.42 813 665.17 854 540.5c47.74-145.1-12.43-270.15-22.75-290.77C746.87 81.21 571.05 43.34 540.5 37.38 409.08 11.73 304 56.82 267.26 74.64Z" style="fill:#49c7ed"/>
            <path class="cls-3" d="M164.87 430.38c2 1.3-53.24 55.39-61.1 138.89-8 85.63 38.6 150.67 36.32 151.63s-55.84-66.76-48-151.81c7.66-83.73 70.68-140.09 72.78-138.71ZM895.09 226a412.87 412.87 0 0 1 50.67 314.5A294.88 294.88 0 0 0 895.09 226ZM951.17 768.86c-14.45 28.25-73.4 135.3-205.22 188-112.57 45-212.08 23.89-246 15.09 19.92 8 145 55.65 278.54-9.44C900.59 903 943 791.64 951.17 768.86Z"/>
            <path d="M267.26 74.64C300.5 58.22 405.71 11.51 540.5 37.38c125 24 202.22 96.34 228.82 123.74-17.85-23.55-90.19-113.29-221.56-140.49-146.87-30.4-258.91 39.86-280.5 54.01Z" style="fill:#8b90c7"/>
        </g>
    </g>
</svg>
