<svg id="viewing_mode" data-name="viewing mode" xmlns="http://www.w3.org/2000/svg" viewBox="0 0 1080 1080"><defs><style>.cls-1{fill:none;stroke:#49c7ed;stroke-miterlimit:10;stroke-width:6px;}.cls-2{fill:#8fcea7;}.cls-3{fill:#49c7ed;}.cls-4{fill:#4e61ac;}</style></defs><circle class="cls-1" cx="540" cy="540" r="540"/><g id="weed"><path class="cls-2" d="M681.78,993.16c4.35-14.12,9.31-36.44,6.18-62.86-5.65-47.55-33.22-59.11-37.57-98.6-5.07-46.05,23.83-56.05,30.52-109.18,9.82-78-41.29-144.85-45.78-143.22-4.17,1.52,35.81,60.86,20,132.66-13.27,60.09-51.8,66.2-51.66,116.21.14,44.16,33.78,60,29.35,106.83-2.41,25.48-14.37,45.48-24.4,58.64Z"/><path class="cls-2" d="M753.81,983.8A245.59,245.59,0,0,1,752.13,928c4.44-52.35,24.07-66.38,23.48-104.09C774.77,770.5,741,729.51,738,730.74c-2.57,1.07,20.69,33.61,18,79.43-2.5,42.65-27.06,55.33-40.69,107.61a229.08,229.08,0,0,0-6.74,72.68Z"/><path class="cls-2" d="M590.29,994.75c6.49-12.42,13.29-30.59,9.49-50.49-4.55-23.84-20.33-26.87-25-50.09-5.77-28.44,13.6-36.87,12.52-69.91-1-31.34-18.79-34.08-24.52-66.26-9-50.56,26.49-90.83,21.91-93.39-4.26-2.39-39.54,30-45.91,76.69-5.28,38.69,15.25,43.19,9.39,80.87C541.44,865.23,510.51,885.93,522,913c4.29,10,11.32,13.63,12,25,.92,15.24-10.47,28.29-19.72,36.64a146.73,146.73,0,0,0,76,20.11Z"/></g><g id="weed-2" data-name="weed"><path class="cls-2" d="M420.64,897a244.13,244.13,0,0,0,15.2-55.22c7.83-51.83-8-70,1.43-106.7,13.26-51.7,55.67-83.68,58.24-81.8,2.25,1.64-27.95,27.86-36,73C451.75,769.7,472,788,474,840.5c.81,21.79-1.38,53.4-16.36,92.39-1.78-1.43-4.45-3.69-7.49-6.68-5.94-5.84-8.87-10.15-12-13.87A77.15,77.15,0,0,0,420.64,897Z"/><path class="cls-2" d="M811.26,967.51c-5.41-16-10.19-39.29-.23-60.55,10.07-21.46,25.78-20.81,36-42.86,12.24-26.32-4.63-39,4.12-70.91,8.3-30.24,26.22-28.76,39.3-58.72,20.53-47.07-4.6-94.5.46-95.93,4.7-1.32,31.46,38.35,26.77,85.29-3.89,38.85-24.9,38.44-28,76.45-3.52,43.43,21.72,70.77,4.21,94.36-6.93,9.34-10.55,8.25-17.51,21.56-7.66,14.66-8.25,29.68-7.42,40.45a112.7,112.7,0,0,1-57.74,10.86Z"/></g><path class="cls-3" d="M936.3,902.39C934.45,900,897,940.06,833.13,968.26c-107.27,47.39-234,44.21-323.61-.35-56.81-28.24-87.24-74.12-94.63-85.89-33.6-53.49-8.3-64.13-46.24-167.67-5.51-15.05-14-36.67-3.91-52.44,10.69-16.62,36.88-18.54,50.87-19.56,28-2.06,43,5.32,59.48,7.82,61.09,9.27,141.62-48.64,140.87-98.6-.28-18.2-11.4-39.57-25.83-42.27-24.71-4.62-34.83,50.07-82.17,63.4-24.16,6.8-28.9-5.37-82.18-6.27-51.44-.86-60.32,10.25-70.43,2.35-31.94-25,62.38-131.45,46.95-263.74-10.83-92.88-74.21-185.21-117-181.36-12.21,1.1-25,10.23-29.33,21.71C246.72,170,282.18,190.46,309.17,244c18.32,36.33,40.8,103.89,13.31,131.48-9.94,10-28.07,16.39-42.26,10.95-34.38-13.17-20.68-86.34-51.67-96.06-14.63-4.58-33,6.91-40.68,19.37-13.75,22.34,2.76,54.65,17.22,83,4.86,9.51,12.37,20.95,27.39,43.82,28.69,43.7,34.27,47.87,36,61.83,2.47,20-4.59,46.76-23.48,58.69-22.61,14.29-54.37,2.4-71.22-3.91C145,542.36,137.55,528.91,122.91,533c-14.87,4.16-26.58,23.46-24.26,39.7,2.48,17.28,20.25,26.72,38.35,36,44.93,23,69,9.78,105.17,34.79A134,134,0,0,1,269.37,669c13,15.45,23.39,33.91,33.54,66.47,8.35,26.78,24.65,81.13,15.66,152.61-6.14,48.77-14.74,60.23-21.92,65.74-18.46,14.16-43.67,10-59.78,7.39-36.25-6-61.58-26.19-74.83-39-.23-.23,1,1.62,13.34,12.36,11.41,9.94,17.11,14.91,25.55,21.76,3.74,3,13.48,10.92,24.11,18.77a510.36,510.36,0,0,0,69.56,42.94c5,2.55,20.77,10.5,42.26,19.18,9.24,3.73,28,11,52.53,18.19a561.18,561.18,0,0,0,84.24,17.92,534.28,534.28,0,0,0,106.85,2.53c106.7-8.2,186.4-47.9,212.08-61.57C880.05,967.77,938.62,905.38,936.3,902.39Z"/><path class="cls-4" d="M309.09,907.22c-2.18-12.25-4.83-22.56-5.7-25.83-27.06-101.74-90.82-121.9-103.55-199.57-2.3-14.06,1.39-2.21,3.38-92.05,2.27-103.1-2.35-129.33-18.39-136.86-10.57-5-25.76-1.64-34.44,6.66-20.25,19.36,5.19,56.17,2.35,123.65-.34,8-3.63,76.85-23.48,80.61C110.86,667.31,75,615.48,69,559.74c-4.46-41.31,7.1-100.47,25.46-147.85,6.72-17.35,17.38-41,6.63-56.41C94.52,346,80.49,340.41,69,342.17,26,348.76,5.72,460.86,4,531c-1,42.66-1.64,92.47,27.43,142.22,19.34,33.08,47.32,58.47,57.92,68.08,27.22,24.7,33.45,20.85,57.13,42.27l.32.28c6.25,5.69,72.65,80.7,56,104.58-2.51,3.6-13.92,16.13-73.07-1.76,5.2,6,12.77,14.49,22.21,24.46,12.23,12.92,18.35,19.39,23.41,23.45,19.38,15.55,39.37,21.26,50.05,24.21,9.3,2.56,19.9,5.39,34.2,5.05,13-.32,25.88-.63,37-10,1.27-1.07,12.43-10.75,14.5-26.06C311.82,922.78,310.92,917.52,309.09,907.22Z"/></svg>