<svg xmlns="http://www.w3.org/2000/svg" viewBox="0 0 1080 1080"><defs><style>.cls-1{fill:none;stroke:#231f20;stroke-miterlimit:10;}.cls-2{fill:#4e61ac;}.cls-3{fill:#6d77b9;}.cls-4{fill:#92ce9c;}.cls-5{fill:#49c7ed;}.cls-6{fill:#e1f1e2;}</style></defs><g id="logo"><circle class="cls-1" cx="540" cy="540" r="540"/><path class="cls-2" d="M782.56,870.54a244.85,244.85,0,0,1-26.2,35.34c-9.76,11-95.4,104.13-209.93,89-89.24-11.8-166-85.4-190.17-184.3-11.92,20.23-24.05,49.36-20,82.17,10.54,84.37,120.91,132.48,195,143.16,88.18,12.71,210.73-15.24,244.05-97.38C785.42,913.69,785.17,889.24,782.56,870.54Z"/><path class="cls-3" d="M782.56,870.54a280.71,280.71,0,0,1-26.2,35.34c-14.61,16.79-98.11,108.65-222.84,102.69-71-3.4-122.73-36.93-147.13-55.57,14.17,17.76,41.85,47.25,86.09,66.52a221.2,221.2,0,0,0,58.82,16.38c37.2-6.65,106.21-24.43,172.62-78A374.59,374.59,0,0,0,782.56,870.54Z"/><path class="cls-3" d="M161,259.61c-4.6-19-32.31-35.87-54.26-29.74-17.11,4.78-24.94,21.94-32.66,38.89-13.26,29.1-9.46,44.94-15.86,76.41-6,29.71-11.11,23.89-31.83,80.35C10.53,468.75,2.09,492.31,0,525.7c-1.36,21.62.33,41.38,1.87,59.47a553.31,553.31,0,0,0,8.21,59.14A535.88,535.88,0,0,0,74.39,813.67,548.84,548.84,0,0,0,203.24,962.15a540.8,540.8,0,0,0,513.53,88.24c-53.52,7.54-146.11,11.87-244.29-30.87C368.94,974.45,298.38,894.08,299.91,861a190.47,190.47,0,0,0-9-71.34c-15.85-50.09-5.8-151.73-4-170.32,5.49-55.5,11.66-66.46,4.48-84.29-1.93-4.82-8.92-20.25-2.7-34.11a30.7,30.7,0,0,1,9-11.28c20.87-17.38,51-98.62,26.14-169-7.64-21.66-15.13-27.1-17.27-48.56-2.75-27.38,6.33-49.55,12.52-64.17,5-11.77,17.36-42.21,45.91-70.44,16.5-16.31,27.66-21.33,28.83-34.82s-8.45-29-21.53-34c-5-1.94-17.79-4.86-46.95,14.61-45.56,30.43-69.14,82.07-75.13,96-14.58,33.87-29.52,68.59-19.83,108,6.49,26.4,17.3,27.55,24.52,61.57,9.59,45.19-3.36,72.07-6.26,77.74-3.19,6.25-14.92,29.2-30.26,28.69-10-.33-16.87-10.41-24.52-21.91-20.88-31.4-16-53-37.57-75.65a81.26,81.26,0,0,0-12.93-11c-5.14,21.11-10.51,38-14.72,50.12-4.88,14-10.49,28.2-14.36,38-3.26,8.26-6.07,15.11-8.07,19.94a61.34,61.34,0,0,1,9.91,8.35c17.65,18.4,12.79,36.85,30.26,53.21a84.37,84.37,0,0,0,13,9.74c12.24,7.44,20.05,7.57,30.66,19.44,17.94,20.06,14.29,93.71,13.7,103.35-3.32,54.59-8.43,42.22-7.17,65.47.51,9.36,1.93,22.35-6.17,32.77-4.46,5.73-12.27,11.71-20.83,11.84-13.62.22-24.27-14-33.18-28.23C97,667.84,87.75,599.27,85.31,578.15c-3.64-31.68-2.17-46.08-1.53-51.41.67-5.56,2.7-20.07,22.44-72,11.59-30.51,13.67-32.95,22.43-57.91,11-31.37,13.58-44,14.72-50.12,4.09-22.12,1.35-24.5,5.83-43.74C155.83,274.48,163.8,271.16,161,259.61Z"/><path class="cls-4" d="M716.77,1050.39c-101.26,13.54-174.15-8.84-211.42-23.82-29-11.65-116.15-46.71-119.74-99.79-1.2-17.73,8.37-19.32,8.22-46.95-.2-35-15.18-48.73-20-90.4-2.33-20.26-.92-35.65,0-45.78,6.5-71.27,44.29-78.16,63.39-153.78,10.31-40.81,6.62-67.76,31.7-90.39,11.7-10.56,19-10.55,31.69-17.61,55.21-30.69,78.29-120.32,78.26-183.13,0-39.76-9.29-65.79,7.44-97.44A456.24,456.24,0,0,1,611,160.22c17.07-24.74,24.92-29.71,24.65-41.09-.42-18.14-21.14-38.36-39.91-37.56-8.87.37-18.13,5.47-44.61,48.13-32.32,52.06-48.48,78.1-50.48,109.17-2.27,35.26,11.78,37.66,10.57,74C509.43,366.39,477,417.13,461.52,414c-23-4.58,12.53-123.78-50.61-178.43-12.55-10.87-31.25-21.12-44.87-47-11.92-22.62-6.24-31.15-16.69-57.91-1.81-4.62-27.87-69.5-61.58-66.65-17.41,1.48-34.79,20.84-35.47,39-.67,18,15.45,22.71,32.23,52.41,16.08,28.48,8.89,37.61,22,65,16.41,34.17,31.5,28,55.3,62.09,40,57.28,31.42,123.47,30.26,131.47-1.9,13.15-3,9.71-8.14,34.77-10.47,51.45-7.72,76-11.16,98.28C364.24,602.64,313.5,668.28,268.22,665c-39-2.83-75.49-56.77-84.52-102.13-6.45-32.37,2.47-53.49-14.09-70.44-15.68-16-48.09-22.1-63.39-9.39-31.95,26.54,7.56,137.43,49.3,211.31,56.1,99.3,113.6,127.1,105.65,181.95-5.35,37-37.14,63.48-64.47,80.55a540.87,540.87,0,0,0,520.07,93.54Z"/><path class="cls-5" d="M984.64,233.5c-11-16.28-23.38-34.52-43.91-55.46-57.47-58.63-121.81-80.61-145-88.26C654.26,43.24,511.53,91.7,440.23,146.92,428,156.38,415.71,167.75,415,168.43c-21.72,19.82-70.72,65.55-99.49,141.86-25.92,68.76-44.45,186.33,7.92,222.06,4.57,3.11,20.19,12.78,65.74,7.65C516,525.72,544.34,433.93,650.91,427.87c14.6-.83,68.71-2.22,116.22,31.7,60.15,42.93,72.31,115.76,77.48,146.73C865,728.15,809.46,874.53,700.22,960.83c-124.67,98.47-306.75,108.77-462.38,26.78a541.36,541.36,0,0,0,224.47,86.77c131.17,18.94,235.4-15.73,285.61-36.7,46.9-19.59,142.62-67.29,221.48-170.21,64.05-83.57,87.47-165,95.9-200.12h0c27.3-109.17,5.91-224.9,5.91-224.9C1067.81,424.06,1049.36,329.56,984.64,233.5Z"/><circle class="cls-6" cx="466.61" cy="376.79" r="15.85"/></g></svg>